Guessed Channel Layout for Input Stream #0.1 : 5.1
Input #0, matroska,webm, from '/src/input/DemoFile.mkv':
  Metadata:
    CREATION_TIME   : 2019-06-15T08:06:07Z
    ENCODER         : Lavf57.7.2
  Duration: 01:48:54.82, start: 0.000000, bitrate: 2709 kb/s
    Chapter #0:0: start 0.000000, end 328.537000
    Metadata:
      title           : 00:00:00.000
    Chapter #0:1: start 328.537000, end 419.044000
    Metadata:
      title           : 00:05:28.537
    Chapter #0:2: start 419.044000, end 916.874000
    Metadata:
      title           : 00:06:59.044
    Chapter #0:3: start 916.874000, end 1309.433000
    Metadata:
      title           : 00:15:16.749
    Chapter #0:4: start 1309.433000, end 1399.023000
    Metadata:
      title           : 00:21:49.391
    Chapter #0:5: start 1399.023000, end 1508.924000
    Metadata:
      title           : 00:23:19.023
    Chapter #0:6: start 1508.924000, end 1767.099000
    Metadata:
      title           : 00:25:08.924
    Chapter #0:7: start 1767.099000, end 1975.474000
    Metadata:
      title           : 00:29:27.099
    Chapter #0:8: start 1975.474000, end 2301.466000
    Metadata:
      title           : 00:32:55.473
    Chapter #0:9: start 2301.466000, end 2498.246000
    Metadata:
      title           : 00:38:21.466
    Chapter #0:10: start 2498.246000, end 2622.036000
    Metadata:
      title           : 00:41:38.246
    Chapter #0:11: start 2622.036000, end 2925.172000
    Metadata:
      title           : 00:43:42.036
    Chapter #0:12: start 2925.172000, end 3183.472000
    Metadata:
      title           : 00:48:45.172
    Chapter #0:13: start 3183.472000, end 3467.172000
    Metadata:
      title           : 00:53:03.472
    Chapter #0:14: start 3467.172000, end 3684.472000
    Metadata:
      title           : 00:57:47.172
    Chapter #0:15: start 3684.472000, end 3885.840000
    Metadata:
      title           : 01:01:24.472
    Chapter #0:16: start 3885.840000, end 4063.059000
    Metadata:
      title           : 01:04:45.840
    Chapter #0:17: start 4063.059000, end 4275.605000
    Metadata:
      title           : 01:07:43.059
    Chapter #0:18: start 4275.605000, end 4434.263000
    Metadata:
      title           : 01:11:15.605
    Chapter #0:19: start 4434.263000, end 4709.205000
    Metadata:
      title           : 01:13:54.263
    Chapter #0:20: start 4709.205000, end 4900.020000
    Metadata:
      title           : 01:18:29.204
    Chapter #0:21: start 4900.020000, end 5081.201000
    Metadata:
      title           : 01:21:40.020
    Chapter #0:22: start 5081.201000, end 5211.123000
    Metadata:
      title           : 01:24:41.201
    Chapter #0:23: start 5211.123000, end 5359.938000
    Metadata:
      title           : 01:26:51.123
    Chapter #0:24: start 5359.938000, end 5833.786000
    Metadata:
      title           : 01:29:19.938
    Chapter #0:25: start 5833.786000, end 5953.865000
    Metadata:
      title           : 01:37:13.786
    Chapter #0:26: start 5953.865000, end 6229.432000
    Metadata:
      title           : 01:39:13.865
    Chapter #0:27: start 6229.432000, end 6534.779000
    Metadata:
      title           : 01:43:49.181
    Stream #0:0: Video: h264 (High), yuv420p(tv, bt709, progressive), 1920x1080 [SAR 1:1 DAR 16:9], 23.98 fps, 23.98 tbr, 1k tbn, 47.95 tbc (default)
    Stream #0:1(eng): Audio: ac3, 48000 Hz, 5.1, fltp (default)
    Metadata:
      title           : Surround
    Stream #0:2(jpn): Audio: ac3, 48000 Hz, 5.1(side), fltp, 640 kb/s
    Metadata:
      title           : Surround
    Stream #0:3(eng): Subtitle: ass (default) (forced)
    Stream #0:4(eng): Subtitle: ass
Stream mapping:
  Stream #0:0 -> #0:0 (h264 (native) -> hevc (libx265))
  Stream #0:2 -> #0:1 (ac3 (native) -> eac3 (native))
x265 [info]: HEVC encoder version 3.4
x265 [info]: build info [Linux][GCC 9.3.0][64 bit] 8bit+10bit+12bit
x265 [info]: using cpu capabilities: MMX2 SSE2Fast LZCNT SSSE3 SSE4.2 AVX FMA3 BMI2 AVX2
x265 [info]: Main profile, Level-4 (Main tier)
x265 [info]: Thread pool created using 12 threads
x265 [info]: Slices                              : 1
x265 [info]: frame threads / pool features       : 3 / wpp(17 rows)
set_mempolicy: Operation not permitted
set_mempolicy: Operation not permitted
set_mempolicy: Operation not permitted
set_mempolicy: Operation not permitted
set_mempolicy: Operation not permitted
set_mempolicy: Operation not permitted
set_mempolicy: Operation not permitted
set_mempolicy: Operation not permitted
set_mempolicy: Operation not permitted
set_mempolicy: Operation not permitted
set_mempolicy: Operation not permitted
set_mempolicy: Operation not permitted
set_mempolicy: Operation not permitted
set_mempolicy: Operation not permitted
set_mempolicy: Operation not permitted
set_mempolicy: Operation not permitted
set_mempolicy: Operation not permitted
set_mempolicy: Operation not permitted
set_mempolicy: Operation not permitted
set_mempolicy: Operation not permitted
set_mempolicy: Operation not permitted
set_mempolicy: Operation not permitted
set_mempolicy: Operation not permitted
set_mempolicy: Operation not permitted
set_mempolicy: Operation not permitted
set_mempolicy: Operation not permitted
set_mempolicy: Operation not permitted
set_mempolicy: Operation not permitted
set_mempolicy: Operation not permitted
set_mempolicy: Operation not permitted
x265 [info]: Coding QT: max CU size, min CU size : 64 / 8
x265 [info]: Residual QT: max TU size, max depth : 32 / 1 inter / 1 intra
x265 [info]: ME / range / subpel / merge         : hex / 57 / 2 / 3
x265 [info]: Keyframe min / max / scenecut / bias  : 23 / 250 / 40 / 5.00
x265 [info]: Lookahead / bframes / badapt        : 20 / 4 / 2
x265 [info]: b-pyramid / weightp / weightb       : 1 / 1 / 0
x265 [info]: References / ref-limit  cu / depth  : 3 / off / on
x265 [info]: AQ: mode / str / qg-size / cu-tree  : 2 / 1.0 / 32 / 1
x265 [info]: Rate Control / qCompress            : CRF-16.0 / 0.60
x265 [info]: tools: rd=3 psy-rd=2.00 early-skip rskip mode=1 signhide tmvp
x265 [info]: tools: b-intra strong-intra-smoothing lslices=6 deblock sao
Output #0, mp4, to '/src/output/Demo/Demo.mp4':
  Metadata:
    encoder         : Lavf58.45.100
    Chapter #0:0: start 0.000000, end 328.537000
    Metadata:
      title           : 00:00:00.000
    Chapter #0:1: start 328.537000, end 419.044000
    Metadata:
      title           : 00:05:28.537
    Chapter #0:2: start 419.044000, end 916.874000
    Metadata:
      title           : 00:06:59.044
    Chapter #0:3: start 916.874000, end 1309.433000
    Metadata:
      title           : 00:15:16.749
    Chapter #0:4: start 1309.433000, end 1399.023000
    Metadata:
      title           : 00:21:49.391
    Chapter #0:5: start 1399.023000, end 1508.924000
    Metadata:
      title           : 00:23:19.023
    Chapter #0:6: start 1508.924000, end 1767.099000
    Metadata:
      title           : 00:25:08.924
    Chapter #0:7: start 1767.099000, end 1975.474000
    Metadata:
      title           : 00:29:27.099
    Chapter #0:8: start 1975.474000, end 2301.466000
    Metadata:
      title           : 00:32:55.473
    Chapter #0:9: start 2301.466000, end 2498.246000
    Metadata:
      title           : 00:38:21.466
    Chapter #0:10: start 2498.246000, end 2622.036000
    Metadata:
      title           : 00:41:38.246
    Chapter #0:11: start 2622.036000, end 2925.172000
    Metadata:
      title           : 00:43:42.036
    Chapter #0:12: start 2925.172000, end 3183.472000
    Metadata:
      title           : 00:48:45.172
    Chapter #0:13: start 3183.472000, end 3467.172000
    Metadata:
      title           : 00:53:03.472
    Chapter #0:14: start 3467.172000, end 3684.472000
    Metadata:
      title           : 00:57:47.172
    Chapter #0:15: start 3684.472000, end 3885.840000
    Metadata:
      title           : 01:01:24.472
    Chapter #0:16: start 3885.840000, end 4063.059000
    Metadata:
      title           : 01:04:45.840
    Chapter #0:17: start 4063.059000, end 4275.605000
    Metadata:
      title           : 01:07:43.059
    Chapter #0:18: start 4275.605000, end 4434.263000
    Metadata:
      title           : 01:11:15.605
    Chapter #0:19: start 4434.263000, end 4709.205000
    Metadata:
      title           : 01:13:54.263
    Chapter #0:20: start 4709.205000, end 4900.020000
    Metadata:
      title           : 01:18:29.204
    Chapter #0:21: start 4900.020000, end 5081.201000
    Metadata:
      title           : 01:21:40.020
    Chapter #0:22: start 5081.201000, end 5211.123000
    Metadata:
      title           : 01:24:41.201
    Chapter #0:23: start 5211.123000, end 5359.938000
    Metadata:
      title           : 01:26:51.123
    Chapter #0:24: start 5359.938000, end 5833.786000
    Metadata:
      title           : 01:29:19.938
    Chapter #0:25: start 5833.786000, end 5953.865000
    Metadata:
      title           : 01:37:13.786
    Chapter #0:26: start 5953.865000, end 6229.432000
    Metadata:
      title           : 01:39:13.865
    Chapter #0:27: start 6229.432000, end 6534.779000
    Metadata:
      title           : 01:43:49.181
    Stream #0:0: Video: hevc (libx265) (hev1 / 0x31766568), yuv420p(progressive), 1920x1080 [SAR 1:1 DAR 16:9], q=-1--1, 23.98 fps, 24k tbn, 23.98 tbc (default)
    Metadata:
      encoder         : Lavc58.91.100 libx265
    Side data:
      cpb: bitrate max/min/avg: 0/0/0 buffer size: 0 vbv_delay: N/A
    Stream #0:1(jpn): Audio: eac3 (ec-3 / 0x332D6365), 48000 Hz, 5.1(side), fltp, 448 kb/s
    Metadata:
      title           : Surround
      encoder         : Lavc58.91.100 eac3
frame=   49 fps=0.0 q=24.0 size=       1kB time=00:00:02.52 bitrate=   2.4kbits/s speed=4.85x
frame=49
fps=0.00
stream_0_0_q=24.0
bitrate=   2.4kbits/s
total_size=772
out_time_us=2526667
out_time_ms=2526667
out_time=00:00:02.526667
dup_frames=0
drop_frames=0
speed=4.85x
progress=continue
frame=   87 fps= 84 q=16.7 size=       1kB time=00:00:04.09 bitrate=   1.5kbits/s speed=3.96x
frame=87
fps=84.21
stream_0_0_q=16.7
bitrate=   1.5kbits/s
total_size=772
out_time_us=4094667
out_time_ms=4094667
out_time=00:00:04.094667
dup_frames=0
drop_frames=0
speed=3.96x
progress=continue
frame=  115 fps= 75 q=22.4 size=     257kB time=00:00:05.27 bitrate= 398.5kbits/s speed=3.44x
frame=115
fps=74.95
stream_0_0_q=22.4
bitrate= 398.5kbits/s
total_size=262916
out_time_us=5278667
out_time_ms=5278667
out_time=00:00:05.278667
dup_frames=0
drop_frames=0
speed=3.44x
progress=continue
frame=  146 fps= 72 q=22.6 size=     257kB time=00:00:06.55 bitrate= 320.7kbits/s speed=3.22x
frame=146
fps=71.64
stream_0_0_q=22.6
bitrate= 320.7kbits/s
total_size=262916
out_time_us=6558667
out_time_ms=6558667
out_time=00:00:06.558667
dup_frames=0
drop_frames=0
speed=3.22x
progress=continue
frame=  175 fps= 69 q=20.5 size=     513kB time=00:00:07.77 bitrate= 540.3kbits/s speed=3.06x
frame=175
fps=68.82
stream_0_0_q=20.5
bitrate= 540.3kbits/s
total_size=525060
out_time_us=7774667
out_time_ms=7774667
out_time=00:00:07.774667
dup_frames=0
drop_frames=0
speed=3.06x
progress=continue
frame=  204 fps= 67 q=21.1 size=     769kB time=00:00:08.99 bitrate= 700.5kbits/s speed=2.94x
frame=204
fps=66.66
stream_0_0_q=21.1
bitrate= 700.5kbits/s
total_size=787204
out_time_us=8990667
out_time_ms=8990667
out_time=00:00:08.990667
dup_frames=0
drop_frames=0
speed=2.94x
progress=continue
frame=  231 fps= 65 q=20.5 size=    1025kB time=00:00:10.11 bitrate= 830.3kbits/s speed=2.83x
frame=231
fps=64.66
stream_0_0_q=20.5
bitrate= 830.3kbits/s
total_size=1049348
out_time_us=10110667
out_time_ms=10110667
out_time=00:00:10.110667
dup_frames=0
drop_frames=0
speed=2.83x
progress=continue
frame=  268 fps= 65 q=20.7 size=    1025kB time=00:00:11.64 bitrate= 720.8kbits/s speed=2.84x
frame=268
fps=65.29
stream_0_0_q=20.7
bitrate= 720.8kbits/s
total_size=1049348
out_time_us=11646667
out_time_ms=11646667
out_time=00:00:11.646667
dup_frames=0
drop_frames=0
speed=2.84x
progress=continue
frame=  312 fps= 68 q=21.0 size=    1281kB time=00:00:13.47 bitrate= 778.9kbits/s speed=2.92x
frame=312
fps=67.67
stream_0_0_q=21.0
bitrate= 778.9kbits/s
total_size=1311492
out_time_us=13470667
out_time_ms=13470667
out_time=00:00:13.470667
dup_frames=0
drop_frames=0
speed=2.92x
progress=continue
frame=  353 fps= 69 q=19.9 size=    1281kB time=00:00:15.19 bitrate= 690.3kbits/s speed=2.97x
frame=353
fps=68.97
stream_0_0_q=19.9
bitrate= 690.3kbits/s
total_size=1311492
out_time_us=15198667
out_time_ms=15198667
out_time=00:00:15.198667
dup_frames=0
drop_frames=0
speed=2.97x
progress=continue
frame=  372 fps= 66 q=17.9 size=    1537kB time=00:00:15.99 bitrate= 786.9kbits/s speed=2.84x
frame=372
fps=66.01
stream_0_0_q=17.9
bitrate= 786.9kbits/s
total_size=1573636
out_time_us=15998667
out_time_ms=15998667
out_time=00:00:15.998667
dup_frames=0
drop_frames=0
speed=2.84x
progress=continue